<svg xmlns="http://www.w3.org/2000/svg" xmlns:xlink="http://www.w3.org/1999/xlink" width="168.679" height="38.857" viewBox="0 0 168.679 38.857">
  <defs>
    <clipPath id="clip-path">
      <path id="Path_7" data-name="Path 7" d="M232.684,150h4.845v8.992h-4.845Zm0,0" transform="translate(-232.684 -150)"/>
    </clipPath>
    <clipPath id="clip-path-2">
      <path id="Path_10" data-name="Path 10" d="M242,144.039h26.119V182.9H242Zm0,0" transform="translate(-242 -144.039)"/>
    </clipPath>
  </defs>
  <g id="Logo" transform="translate(-11.321 -13)">
    <g id="wiatrak" transform="translate(11.321 13)">
      <g id="Group_53" data-name="Group 53" transform="translate(0 0)">
        <g id="Group_1" data-name="Group 1" transform="translate(0 2.552)" clip-path="url(#clip-path)">
          <path id="Path_6" data-name="Path 6" d="M237.282,151.221a.307.307,0,0,0,.1-.423.31.31,0,0,0-.425-.1c-2.761,1.694-4.1,4.422-3.977,8.107a.307.307,0,0,0,.308.3h.012a.308.308,0,0,0,.3-.318C233.484,155.287,234.688,152.813,237.282,151.221Zm0,0" transform="translate(-232.85 -150.373)" fill="#12664f"/>
        </g>
        <path id="Path_8" data-name="Path 8" d="M239.7,155.6a.308.308,0,0,0-.432-.067,5.161,5.161,0,0,0-2.214,4.519.307.307,0,0,0,.307.3h.007a.31.31,0,0,0,.3-.314,4.526,4.526,0,0,1,1.964-4.009A.306.306,0,0,0,239.7,155.6Zm0,0" transform="translate(-235.183 -150.579)" fill="#e3d888"/>
        <g id="Group_2" data-name="Group 2" transform="translate(3.989)" clip-path="url(#clip-path-2)">
          <path id="Path_9" data-name="Path 9" d="M268.159,159.443a.309.309,0,0,0-.2-.149l-8.019-1.813a.312.312,0,0,0-.363.206l-.092.284-.686-.222a3.266,3.266,0,0,0,0-1.5l.686-.221.092.284a.307.307,0,0,0,.363.2l8.02-1.812a.312.312,0,0,0,.2-.149.3.3,0,0,0,.025-.247l-.838-2.571a.312.312,0,0,0-.166-.186.315.315,0,0,0-.249,0l-7.558,3.23a.307.307,0,0,0-.172.378l.093.284-.684.221a3.408,3.408,0,0,0-.886-1.208l.425-.584.242.176a.309.309,0,0,0,.182.06.315.315,0,0,0,.233-.105l5.417-6.162a.306.306,0,0,0-.05-.452l-2.2-1.589a.307.307,0,0,0-.242-.054.319.319,0,0,0-.2.144l-4.208,7.038a.308.308,0,0,0,.083.406l.243.176-.425.582a3.365,3.365,0,0,0-1.428-.465v-.718h.3a.308.308,0,0,0,.307-.279l.748-8.157a.314.314,0,0,0-.08-.236.31.31,0,0,0-.227-.1h-2.713a.313.313,0,0,0-.229.1.307.307,0,0,0-.079.236l.748,8.157a.306.306,0,0,0,.308.279h.3v.718a3.4,3.4,0,0,0-1.428.465l-.425-.582.244-.176a.307.307,0,0,0,.084-.406l-4.21-7.038a.308.308,0,0,0-.447-.09l-2.194,1.589a.3.3,0,0,0-.125.214.307.307,0,0,0,.074.238l5.419,6.162a.307.307,0,0,0,.232.1.3.3,0,0,0,.181-.059l.242-.176.425.584a3.378,3.378,0,0,0-.885,1.208l-.684-.221.092-.284a.306.306,0,0,0-.172-.378l-7.557-3.23a.315.315,0,0,0-.249,0,.3.3,0,0,0-.165.186l-.84,2.57a.308.308,0,0,0,.226.395l8.02,1.813a.331.331,0,0,0,.069.006.308.308,0,0,0,.292-.212l.094-.284.686.223a3.266,3.266,0,0,0,0,1.5l-.686.221-.094-.284a.308.308,0,0,0-.361-.2l-8.02,1.811a.311.311,0,0,0-.2.149.305.305,0,0,0-.025.247l.838,2.571a.313.313,0,0,0,.165.186.317.317,0,0,0,.129.027.3.3,0,0,0,.12-.025l7.557-3.23a.306.306,0,0,0,.172-.378l-.092-.284.684-.221a3.372,3.372,0,0,0,.886,1.207l-.426.584-.242-.176a.31.31,0,0,0-.413.045l-5.419,6.162a.307.307,0,0,0,.052.451L249,168.2a.31.31,0,0,0,.182.059.254.254,0,0,0,.062-.007.307.307,0,0,0,.2-.144l3.472-5.805-1.654,14.387a.4.4,0,0,0-.009.066l-.667,5.809a.292.292,0,0,0,0,.039.348.348,0,0,0,.009.074.2.2,0,0,0,.022.052.22.22,0,0,0,.018.045c0,.009.013.014.018.022s0,.007.006.01.007,0,.009.006a.276.276,0,0,0,.09.065.049.049,0,0,0,.015.005.307.307,0,0,0,.115.025h9.188a.323.323,0,0,0,.117-.025.043.043,0,0,0,.013-.005.3.3,0,0,0,.092-.065s.005,0,.008-.006,0-.007.005-.01.013-.013.02-.022.012-.03.018-.045a.277.277,0,0,0,.022-.052.281.281,0,0,0,.006-.074.3.3,0,0,0,.005-.039l-1.3-11.333s0-.006,0-.01a.293.293,0,0,0-.008-.037.221.221,0,0,0-.005-.048l-1.015-8.833,3.472,5.805a.306.306,0,0,0,.2.144.242.242,0,0,0,.062.007.306.306,0,0,0,.181-.059l2.2-1.589a.306.306,0,0,0,.05-.451L258.806,160a.31.31,0,0,0-.415-.045l-.242.176-.425-.584a3.409,3.409,0,0,0,.886-1.209l.684.223-.093.284a.308.308,0,0,0,.172.378l7.557,3.228a.311.311,0,0,0,.122.025.307.307,0,0,0,.294-.212l.838-2.571A.3.3,0,0,0,268.159,159.443Zm-1.3-7.19.629,1.929-7.413,1.676-.1-.31-.1-.309Zm-4.974-5.754,1.648,1.193-5.009,5.7-.531-.383Zm-7.42-1.743h2.037l-.692,7.543h-.654Zm-2.022,8.632-5.009-5.7,1.649-1.193,3.89,6.507Zm-8.965.795.63-1.93,6.987,2.986-.1.309-.1.311Zm.63,7.567-.63-1.93,7.414-1.676.1.311h0l.1.31ZM258.267,157a2.673,2.673,0,0,1-.057.558l-1.285-.416a1.3,1.3,0,0,0,.013-.142,1.324,1.324,0,0,0-.013-.142l1.285-.417A2.677,2.677,0,0,1,258.267,157Zm-1.418,9.219-.082-.895.786.895Zm.635.616-.532.525-.047-.525Zm-.756,3.024,1.216,1.052H253.03l1.216-1.052Zm1.142,1.666-2.4,1.84-2.372-1.84Zm-3.85-4.165-.53-.525h.578Zm.105-1.141h-.7l.786-.895Zm.3-3.278-.5-.574h.55Zm-.943-.149.867,1-.045.487-1.142,1.3Zm-.507,4.4.973.963-.115,1.245-1.234,1.067Zm-.529,4.6,2.521,1.956-3.012,2.311Zm-.052,4.707,3.076-2.362,3.046,2.362Zm6.02.615-2.927,1.987-2.927-1.987Zm-6.607.234,3.131,2.126-3.661,2.485Zm3.68,2.5,3.591,2.438h-7.184Zm.549-.371,3.131-2.126.53,4.611Zm-.06-5.723,2.552-1.959.5,4.322Zm1.164-4.355-.113-1.245.972-.963.378,3.275Zm-.468-5.121-.045-.485.866-1,.321,2.79Zm-.124-1.338-.052-.574h.549Zm-.042,6.3h-2.037l.691-7.543h.654Zm-1.019-13.076a.831.831,0,1,1-.835.832A.834.834,0,0,1,255.487,156.17Zm-.584,2.155a1.546,1.546,0,0,0,.274.09v1.338a2.761,2.761,0,0,1-1.064-.346Zm.891.09a1.545,1.545,0,0,0,.274-.09l.79,1.082a2.743,2.743,0,0,1-1.064.346Zm2.223-2.556-1.283.415a1.447,1.447,0,0,0-.167-.231l.791-1.084A2.772,2.772,0,0,1,258.018,155.859Zm-1.157-1.264-.79,1.084a1.605,1.605,0,0,0-.274-.09V154.25A2.759,2.759,0,0,1,256.861,154.595Zm-1.683-.345v1.338a1.512,1.512,0,0,0-.274.09l-.79-1.084A2.759,2.759,0,0,1,255.178,154.25Zm-1.562.709.791,1.084a1.407,1.407,0,0,0-.169.231l-1.281-.415A2.743,2.743,0,0,1,253.616,154.959Zm-.91,2.042a2.8,2.8,0,0,1,.057-.559l1.286.417a1.4,1.4,0,0,0-.015.142c0,.048.01.094.015.142l-1.286.415A2.773,2.773,0,0,1,252.706,157Zm.251,1.142,1.281-.415a1.523,1.523,0,0,0,.169.231l-.791,1.084A2.76,2.76,0,0,1,252.957,158.144Zm.793,1.763a3.4,3.4,0,0,0,1.428.465v.718h-.3a.309.309,0,0,0-.308.279l-.035.384H253.6l.092-.8a.273.273,0,0,0,0-.037.327.327,0,0,0-.007-.072.383.383,0,0,0-.018-.047.365.365,0,0,0-.03-.057.3.3,0,0,0-.037-.04c-.012-.01-.018-.022-.03-.03l-.242-.177Zm-4.663,7.6-1.649-1.192,5.009-5.7.531.383Zm9.44-6.889,5.009,5.7-1.648,1.192L258,161Zm-.878-.125-.243.176c-.012.01-.018.022-.03.032a.293.293,0,0,0-.037.04.232.232,0,0,0-.03.057.193.193,0,0,0-.018.047.25.25,0,0,0-.007.072.262.262,0,0,0,0,.037l.092.8h-.933l-.036-.384a.307.307,0,0,0-.307-.279h-.3v-.718a3.389,3.389,0,0,0,1.428-.465Zm-.289-1.445-.791-1.084a1.486,1.486,0,0,0,.167-.231l1.283.415A2.789,2.789,0,0,1,257.359,159.043Zm9.5,2.707-6.986-2.986.1-.31v0l.1-.309,7.414,1.676Zm0,0" transform="translate(-242.443 -144.097)"/>
        </g>
        <path id="Path_11" data-name="Path 11" d="M306,178.262a.309.309,0,0,0-.617.02c.116,3.5-1.089,5.969-3.684,7.562a.308.308,0,0,0,.162.57.317.317,0,0,0,.162-.045C304.78,184.675,306.119,181.947,306,178.262Zm0,0" transform="translate(-272.061 -163.438)" fill="#12664f"/>
        <path id="Path_12" data-name="Path 12" d="M301.609,186.23a.306.306,0,0,0,.431.067,5.164,5.164,0,0,0,2.216-4.519.31.31,0,0,0-.316-.3.307.307,0,0,0-.3.314,4.527,4.527,0,0,1-1.964,4.009A.307.307,0,0,0,301.609,186.23Zm0,0" transform="translate(-272.062 -165.446)" fill="#e3d888"/>
      </g>
    </g>
    <g id="Golęczewo" transform="translate(8.966 -9.046)">
      <g id="Group_7" data-name="Group 7" transform="translate(41.371 38.696)">
        <g id="Group_6" data-name="Group 6" transform="translate(0 0)">
          <g id="Group_5" data-name="Group 5" transform="translate(0 0)">
            <path id="Path_17" data-name="Path 17" d="M10.794-10.409h1.218v4.6a5.818,5.818,0,0,1-2,1.149,7.461,7.461,0,0,1-2.425.391,6.678,6.678,0,0,1-3.264-.793,5.846,5.846,0,0,1-2.276-2.2,6.116,6.116,0,0,1-.828-3.149,6.087,6.087,0,0,1,.828-3.15,5.867,5.867,0,0,1,2.276-2.2A6.708,6.708,0,0,1,7.6-16.547a7.089,7.089,0,0,1,2.529.437,5.031,5.031,0,0,1,1.954,1.3L11.288-14a4.943,4.943,0,0,0-3.632-1.414A5.468,5.468,0,0,0,5-14.765,4.8,4.8,0,0,0,3.15-12.972a5.009,5.009,0,0,0-.667,2.563A4.944,4.944,0,0,0,3.15-7.857,4.887,4.887,0,0,0,5-6.064a5.3,5.3,0,0,0,2.632.655,5.287,5.287,0,0,0,3.161-.931Zm0,0" transform="translate(-1.219 16.547)"/>
          </g>
        </g>
      </g>
      <g id="Group_10" data-name="Group 10" transform="translate(56.347 38.696)">
        <g id="Group_9" data-name="Group 9" transform="translate(0 0)">
          <g id="Group_8" data-name="Group 8" transform="translate(0 0)">
            <path id="Path_18" data-name="Path 18" d="M7.564-4.271a6.61,6.61,0,0,1-3.253-.8,5.948,5.948,0,0,1-2.276-2.2,6.1,6.1,0,0,1-.816-3.138,6.071,6.071,0,0,1,.816-3.138,5.866,5.866,0,0,1,2.276-2.2,6.641,6.641,0,0,1,3.253-.8,6.576,6.576,0,0,1,3.23.793,5.867,5.867,0,0,1,2.276,2.2,6.087,6.087,0,0,1,.828,3.15,6.116,6.116,0,0,1-.828,3.149,5.846,5.846,0,0,1-2.276,2.2A6.576,6.576,0,0,1,7.564-4.271Zm0-1.138a5.187,5.187,0,0,0,2.586-.644,4.754,4.754,0,0,0,1.816-1.793,5.079,5.079,0,0,0,.655-2.563,5.086,5.086,0,0,0-.655-2.563,4.674,4.674,0,0,0-1.816-1.793,5.217,5.217,0,0,0-2.586-.644,5.316,5.316,0,0,0-2.6.644,4.724,4.724,0,0,0-1.828,1.793,5.087,5.087,0,0,0-.655,2.563,5.079,5.079,0,0,0,.655,2.563A4.8,4.8,0,0,0,4.966-6.052,5.284,5.284,0,0,0,7.564-5.409Zm0,0" transform="translate(-1.219 16.547)"/>
          </g>
        </g>
      </g>
      <g id="Group_13" data-name="Group 13" transform="translate(73.53 38.799)">
        <g id="Group_12" data-name="Group 12" transform="translate(0 0)">
          <g id="Group_11" data-name="Group 11" transform="translate(0 0)">
            <path id="Path_19" data-name="Path 19" d="M2.672-16.406H3.948V-5.441h6.759v1.1H2.672Zm0,0" transform="translate(-2.672 16.406)"/>
          </g>
        </g>
      </g>
      <g id="Group_16" data-name="Group 16" transform="translate(85.335 38.799)">
        <g id="Group_15" data-name="Group 15" transform="translate(0 0)">
          <g id="Group_14" data-name="Group 14" transform="translate(0 0)">
            <path id="Path_20" data-name="Path 20" d="M11.212-5.441v1.1H2.672V-16.406h8.276v1.1h-7v4.287h6.242v1.092H3.948v4.483ZM10.1-.544A2.033,2.033,0,0,1,8.718-.992,1.493,1.493,0,0,1,8.2-2.176q0-1.612,2.437-2.632l.563.471q-2.1.931-2.1,2.069a.849.849,0,0,0,.31.713,1.259,1.259,0,0,0,.816.253,1.68,1.68,0,0,0,1.069-.322l.276.667A2.592,2.592,0,0,1,10.1-.544Zm0,0" transform="translate(-2.672 16.406)"/>
          </g>
        </g>
      </g>
      <g id="Group_19" data-name="Group 19" transform="translate(97.45 38.696)">
        <g id="Group_18" data-name="Group 18" transform="translate(0 0)">
          <g id="Group_17" data-name="Group 17" transform="translate(0 0)">
            <path id="Path_21" data-name="Path 21" d="M7.529-4.271A6.568,6.568,0,0,1,4.3-5.064a5.855,5.855,0,0,1-2.264-2.2,6.164,6.164,0,0,1-.816-3.149,6.134,6.134,0,0,1,.816-3.15,5.867,5.867,0,0,1,2.276-2.2,6.637,6.637,0,0,1,3.241-.793,6.714,6.714,0,0,1,2.483.448,5.146,5.146,0,0,1,1.931,1.31l-.816.8a4.821,4.821,0,0,0-3.563-1.425,5.252,5.252,0,0,0-2.609.655,4.8,4.8,0,0,0-1.839,1.793,5.021,5.021,0,0,0-.655,2.552,5.021,5.021,0,0,0,.655,2.552A4.8,4.8,0,0,0,4.977-6.064a5.252,5.252,0,0,0,2.609.655A4.725,4.725,0,0,0,11.15-6.857l.816.8a5.236,5.236,0,0,1-1.943,1.322A6.64,6.64,0,0,1,7.529-4.271Zm0,0" transform="translate(-1.219 16.547)"/>
          </g>
        </g>
      </g>
      <g id="Group_22" data-name="Group 22" transform="translate(111.381 38.799)">
        <g id="Group_21" data-name="Group 21" transform="translate(0 0)">
          <g id="Group_20" data-name="Group 20" transform="translate(0 0)">
            <path id="Path_22" data-name="Path 22" d="M10.959-5.441v1.1h-9.9v-.885l8-10.081H1.177v-1.1h9.575v.874L2.764-5.441Zm0,0" transform="translate(-1.063 16.406)"/>
          </g>
        </g>
      </g>
      <g id="Group_25" data-name="Group 25" transform="translate(125.439 38.799)">
        <g id="Group_24" data-name="Group 24" transform="translate(0 0)">
          <g id="Group_23" data-name="Group 23" transform="translate(0 0)">
            <path id="Path_23" data-name="Path 23" d="M11.212-5.441v1.1H2.672V-16.406h8.276v1.1h-7v4.287h6.242v1.092H3.948v4.483Zm0,0" transform="translate(-2.672 16.406)"/>
          </g>
        </g>
      </g>
      <g id="Group_28" data-name="Group 28" transform="translate(137.301 38.799)">
        <g id="Group_27" data-name="Group 27" transform="translate(0 0)">
          <g id="Group_26" data-name="Group 26" transform="translate(0 0)">
            <path id="Path_24" data-name="Path 24" d="M18.772-16.406,14.7-4.337H13.358l-3.54-10.3L6.266-4.337H4.944L.875-16.406h1.31L5.668-6.027l3.6-10.38h1.2L14.013-5.981l3.529-10.426Zm0,0" transform="translate(-0.875 16.406)"/>
          </g>
        </g>
      </g>
      <g id="Group_31" data-name="Group 31" transform="translate(158.355 38.696)">
        <g id="Group_30" data-name="Group 30" transform="translate(0 0)">
          <g id="Group_29" data-name="Group 29" transform="translate(0 0)">
            <path id="Path_25" data-name="Path 25" d="M7.564-4.271a6.61,6.61,0,0,1-3.253-.8,5.948,5.948,0,0,1-2.276-2.2,6.1,6.1,0,0,1-.816-3.138,6.071,6.071,0,0,1,.816-3.138,5.866,5.866,0,0,1,2.276-2.2,6.641,6.641,0,0,1,3.253-.8,6.576,6.576,0,0,1,3.23.793,5.867,5.867,0,0,1,2.276,2.2,6.087,6.087,0,0,1,.828,3.15,6.116,6.116,0,0,1-.828,3.149,5.846,5.846,0,0,1-2.276,2.2A6.576,6.576,0,0,1,7.564-4.271Zm0-1.138a5.187,5.187,0,0,0,2.586-.644,4.754,4.754,0,0,0,1.816-1.793,5.079,5.079,0,0,0,.655-2.563,5.086,5.086,0,0,0-.655-2.563,4.674,4.674,0,0,0-1.816-1.793,5.217,5.217,0,0,0-2.586-.644,5.316,5.316,0,0,0-2.6.644,4.724,4.724,0,0,0-1.828,1.793,5.087,5.087,0,0,0-.655,2.563,5.079,5.079,0,0,0,.655,2.563A4.8,4.8,0,0,0,4.966-6.052,5.284,5.284,0,0,0,7.564-5.409Zm0,0" transform="translate(-1.219 16.547)"/>
          </g>
        </g>
      </g>
    </g>
    <g id="_for_you" data-name="+for you" transform="translate(-46.457 3.678)">
      <g id="Group_34" data-name="Group 34" transform="translate(175.634 43.156)">
        <g id="Group_33" data-name="Group 33" transform="translate(0 0)">
          <g id="Group_32" data-name="Group 32" transform="translate(0 0)">
            <path id="Path_26" data-name="Path 26" d="M4.694-4.481H3.107v1.563H2.383V-4.481H.8v-.69H2.383V-6.734h.724v1.563H4.694Zm0,0" transform="translate(-0.797 6.734)" fill="#12664f"/>
          </g>
        </g>
      </g>
      <g id="Group_37" data-name="Group 37" transform="translate(181.871 42.006)">
        <g id="Group_36" data-name="Group 36" transform="translate(0 0)">
          <g id="Group_35" data-name="Group 35" transform="translate(0 0)">
            <path id="Path_27" data-name="Path 27" d="M2.112-7.538v2.126H5.17v.747H2.112v2.471H1.25V-8.3h4.3v.759Zm0,0" transform="translate(-1.25 8.297)" fill="#12664f"/>
          </g>
        </g>
      </g>
      <g id="Group_39" data-name="Group 39" transform="translate(187.731 41.937)">
        <g id="Group_38" data-name="Group 38" transform="translate(0 0)">
          <path id="Path_28" data-name="Path 28" d="M3.815-2.149a3.429,3.429,0,0,1-1.667-.4A2.967,2.967,0,0,1,.988-3.666a3.085,3.085,0,0,1-.425-1.6,3.056,3.056,0,0,1,.425-1.6A3.008,3.008,0,0,1,2.149-7.977a3.374,3.374,0,0,1,1.667-.414,3.322,3.322,0,0,1,1.655.414A2.931,2.931,0,0,1,6.632-6.862a3.086,3.086,0,0,1,.414,1.6,3.116,3.116,0,0,1-.414,1.6A2.893,2.893,0,0,1,5.471-2.551,3.377,3.377,0,0,1,3.815-2.149Zm0-.77a2.441,2.441,0,0,0,1.207-.3,2.259,2.259,0,0,0,.851-.851,2.354,2.354,0,0,0,.31-1.2,2.324,2.324,0,0,0-.31-1.2A2.209,2.209,0,0,0,5.022-7.3a2.389,2.389,0,0,0-1.207-.31A2.44,2.44,0,0,0,2.6-7.3a2.19,2.19,0,0,0-.851.839,2.324,2.324,0,0,0-.31,1.2,2.354,2.354,0,0,0,.31,1.2,2.239,2.239,0,0,0,.851.851A2.493,2.493,0,0,0,3.815-2.919Zm0,0" transform="translate(-0.563 8.391)" fill="#12664f"/>
        </g>
      </g>
      <g id="Group_43" data-name="Group 43" transform="translate(196.388 42.006)">
        <g id="Group_42" data-name="Group 42" transform="translate(0 0)">
          <g id="Group_41" data-name="Group 41" transform="translate(0 0)">
            <path id="Path_29" data-name="Path 29" d="M5.319-2.193,4.009-4.067a3.624,3.624,0,0,1-.379.023H2.112v1.851H1.25V-8.3H3.629a2.8,2.8,0,0,1,1.862.575A1.914,1.914,0,0,1,6.17-6.17a2.014,2.014,0,0,1-.356,1.207,1.965,1.965,0,0,1-.989.724L6.273-2.193Zm-1.724-2.6a1.955,1.955,0,0,0,1.264-.356A1.243,1.243,0,0,0,5.3-6.17a1.235,1.235,0,0,0-.437-1.012,1.972,1.972,0,0,0-1.264-.356H2.112v2.747Zm0,0" transform="translate(-1.25 8.297)" fill="#12664f"/>
          </g>
        </g>
      </g>
      <g id="Group_46" data-name="Group 46" transform="translate(205.779 42.006)">
        <g id="Group_45" data-name="Group 45" transform="translate(0 0)">
          <g id="Group_44" data-name="Group 44" transform="translate(0 0)">
            <path id="Path_30" data-name="Path 30" d="M3.241-4.3v2.1H2.378V-4.32L-.047-8.3H.884L2.838-5.078,4.792-8.3h.862Zm0,0" transform="translate(0.047 8.297)" fill="#12664f"/>
          </g>
        </g>
      </g>
      <g id="Group_49" data-name="Group 49" transform="translate(212.697 41.938)">
        <g id="Group_48" data-name="Group 48" transform="translate(0 0)">
          <g id="Group_47" data-name="Group 47" transform="translate(0 0)">
            <path id="Path_31" data-name="Path 31" d="M3.815-2.149a3.429,3.429,0,0,1-1.667-.4A2.967,2.967,0,0,1,.988-3.666a3.085,3.085,0,0,1-.425-1.6,3.056,3.056,0,0,1,.425-1.6A3.008,3.008,0,0,1,2.149-7.977a3.374,3.374,0,0,1,1.667-.414,3.322,3.322,0,0,1,1.655.414A2.931,2.931,0,0,1,6.632-6.862a3.086,3.086,0,0,1,.414,1.6,3.116,3.116,0,0,1-.414,1.6A2.893,2.893,0,0,1,5.471-2.551,3.377,3.377,0,0,1,3.815-2.149Zm0-.77a2.441,2.441,0,0,0,1.207-.3,2.259,2.259,0,0,0,.851-.851,2.354,2.354,0,0,0,.31-1.2,2.324,2.324,0,0,0-.31-1.2A2.209,2.209,0,0,0,5.022-7.3a2.389,2.389,0,0,0-1.207-.31A2.44,2.44,0,0,0,2.6-7.3a2.19,2.19,0,0,0-.851.839,2.324,2.324,0,0,0-.31,1.2,2.354,2.354,0,0,0,.31,1.2,2.239,2.239,0,0,0,.851.851A2.493,2.493,0,0,0,3.815-2.919Zm0,0" transform="translate(-0.563 8.391)" fill="#12664f"/>
          </g>
        </g>
      </g>
      <g id="Group_52" data-name="Group 52" transform="translate(221.296 42.006)">
        <g id="Group_51" data-name="Group 51" transform="translate(0 0)">
          <g id="Group_50" data-name="Group 50" transform="translate(0 0)">
            <path id="Path_32" data-name="Path 32" d="M3.747-2.124a2.536,2.536,0,0,1-1.9-.69,2.766,2.766,0,0,1-.678-2.012V-8.3h.874V-4.86q0,1.966,1.713,1.966a1.638,1.638,0,0,0,1.276-.483A2.138,2.138,0,0,0,5.482-4.86V-8.3h.851v3.471a2.756,2.756,0,0,1-.678,2.012A2.559,2.559,0,0,1,3.747-2.124Zm0,0" transform="translate(-1.172 8.297)" fill="#12664f"/>
          </g>
        </g>
      </g>
    </g>
  </g>
</svg>
